Coordinates
version=1
nRows=21
nColumns=22
inDegrees=yes

Units are S.I. units (second, meters, Newtons, ...)
If the header above contains a line with 'inDegrees', this indicates whether rotational values are in degrees (yes) or radians (no).

endheader
time	pelvis_tilt	pelvis_list	pelvis_rotation	pelvis_tx	pelvis_ty	pelvis_tz	hip_flexion_r	hip_adduction_r	hip_rotation_r	knee_angle_r	ankle_angle_r	subtalar_angle_r	hip_flexion_l	hip_adduction_l	hip_rotation_l	knee_angle_l	ankle_angle_l	subtalar_angle_l	lumbar_extension	lumbar_bending	lumbar_rotation
      2.72000000	     -0.88562311	     -1.98938928	    -33.79900059	     -0.14994773	      0.89630358	     -0.47029009	    -11.64892287	      7.22518021	     10.94821786	    -23.40237383	     18.52602502	     -7.96309676	     30.85348295	     -2.94791140	     13.65182067	    -26.28723534	      5.15239929	      7.54944287	     -8.42767714	     -2.73825936	      6.24638658
      2.73000000	     -0.60030671	     -1.48791684	    -34.21059289	     -0.14021245	      0.89664198	     -0.46543607	    -11.41794035	      6.50510671	     10.57302016	    -24.95921240	     17.32366680	     -7.95227923	     30.67837634	     -2.18681801	     13.70667345	    -27.39284333	      4.71664001	      7.74530355	     -8.26570524	     -3.53966089	      6.14374987
      2.74000000	     -0.25819883	     -0.97566716	    -34.58679071	     -0.13037883	      0.89731742	     -0.46046636	    -11.14182058	      5.74261310	     10.02733192	    -26.61880446	     15.78493411	     -7.95043884	     30.36440256	     -1.43036154	     13.61072917	    -28.30676120	      4.39563881	      7.92396190	     -8.13899024	     -4.38929234	      5.96639192
      2.75000000	      0.14311610	     -0.48735475	    -34.92662049	     -0.12049712	      0.89829858	     -0.45545237	    -10.82363196	      4.94061539	      9.22970659	    -28.39438476	     13.96899398	     -7.90312200	     29.90524487	     -0.70443580	     13.37006009	    -29.04756768	      4.18857104	      8.14682914	     -8.08689889	     -5.24657739	      5.75410574
      2.76000000	      0.56618381	     -0.02891200	    -35.25278972	     -0.11064742	      0.89953739	     -0.45037455	    -10.43957571	      4.12162710	      8.26446347	    -30.26061946	     11.82546134	     -7.87034480	     29.31295386	     -0.04339701	     13.01119637	    -29.58427587	      4.12182662	      8.36071722	     -8.07874826	     -6.08114071	      5.48753814
      2.77000000	      0.98844977	      0.38663857	    -35.57593037	     -0.10090284	      0.90096718	     -0.44528706	     -9.95809746	      3.29171724	      7.12951995	    -32.23383798	      9.41395205	     -7.83370057	     28.61511771	      0.53660149	     12.55777961	    -29.94394143	      4.19537127	      8.57667931	     -8.11198326	     -6.85923933	      5.18901162
      2.78000000	      1.35912432	      0.75003426	    -35.92014945	     -0.09136125	      0.90250383	     -0.44021048	     -9.31772593	      2.48138458	      5.89157014	    -34.33590221	      6.77210849	     -7.82778844	     27.85900274	      0.99983995	     12.03519656	    -30.14236491	      4.41789235	      8.75074156	     -8.14997756	     -7.53519486	      4.88238527
      2.79000000	      1.71379876	      1.07414827	    -36.27643907	     -0.08205115	      0.90411298	     -0.43524344	     -8.52468888	      1.64244599	      4.55813829	    -36.59340935	      4.01675239	     -7.77418706	     27.05694420	      1.40669782	     11.47522402	    -30.24297255	      4.70410128	      8.91360637	     -8.23506768	     -8.13965628	      4.56664031
      2.80000000	      2.00950575	      1.36202026	    -36.66229198	     -0.07302691	      0.90572133	     -0.43037643	     -7.52337887	      0.79252227	      3.18679096	    -39.02237363	      1.22462689	     -7.67352584	     26.23998006	      1.72650760	     10.86955173	    -30.22198211	      5.03321545	      9.02715290	     -8.32088858	     -8.64264502	      4.23835097
      2.81000000	      2.24115188	      1.64288332	    -37.08570797	     -0.06434530	      0.90722772	     -0.42564423	     -6.27692255	     -0.07361224	      1.88646809	    -41.64437282	     -1.52681881	     -7.51489298	     25.46469889	      1.99833373	     10.25238832	    -30.14215096	      5.39187539	      9.04002982	     -8.39326988	     -9.07238592	      3.89820078
      2.82000000	      2.41251533	      1.92300468	    -37.54868478	     -0.05598981	      0.90859007	     -0.42107289	     -4.78945543	     -0.96472393	      0.68219051	    -44.44084272	     -4.13416712	     -7.25147425	     24.74191074	      2.23792932	      9.63299840	    -30.01717113	      5.75575674	      8.90814966	     -8.44842421	     -9.43008939	      3.57695999
      2.83000000	      2.56284602	      2.20646886	    -38.04510732	     -0.04793969	      0.90983705	     -0.41664746	     -3.11577788	     -1.89286176	     -0.39455645	    -47.36006599	     -6.48837422	     -6.81679380	     24.04950895	      2.48313416	      9.02211823	    -29.86722979	      6.06943542	      8.65044730	     -8.52099474	     -9.75399398	      3.26824998
      2.84000000	      2.68339028	      2.50036972	    -38.57755375	     -0.04017302	      0.91091840	     -0.41234003	     -1.26834928	     -2.82553888	     -1.27490484	    -50.34602440	     -8.45611049	     -6.00511018	     23.40075246	      2.73763490	      8.43633915	    -29.69851446	      6.43899847	      8.18683464	     -8.58924819	    -10.04234217	      2.94082215
      2.85000000	      2.82210257	      2.77965454	    -39.13225990	     -0.03262072	      0.91193042	     -0.40814817	      0.65560165	     -3.77136938	     -2.01179910	    -53.31047444	     -9.94050353	     -4.85275314	     22.74982632	      3.01784462	      7.86366792	    -29.53284571	      6.76489977	      7.59002508	     -8.70873955	    -10.30424033	      2.62135782
      2.86000000	      2.98279454	      3.04933604	    -39.71080393	     -0.02527933	      0.91288995	     -0.40399976	      2.62652152	     -4.70247994	     -2.58336477	    -56.18169255	    -10.85229853	     -3.45943520	     22.08448351	      3.32835419	      7.31732299	    -29.35470496	      7.06530343	      6.88093629	     -8.86904635	    -10.56022228	      2.28483340
      2.87000000	      3.17013972	      3.28090316	    -40.30485136	     -0.01810562	      0.91384796	     -0.39985987	      4.58481932	     -5.58444130	     -3.02397643	    -58.88006623	    -11.17649445	     -2.02099922	     21.38232406	      3.65012263	      6.80197520	    -29.17235954	      7.36747825	      6.07107759	     -9.08482192	    -10.78773068	      1.93420605
      2.88000000	      3.38569655	      3.46191771	    -40.90845963	     -0.01107724	      0.91485990	     -0.39567414	      6.48723820	     -6.38991094	     -3.35889063	    -61.33762868	    -10.95015673	     -0.79996299	     20.62059326	      3.97289556	      6.33057607	    -28.96952982	      7.68065582	      5.20419437	     -9.35632118	    -10.98441913	      1.55933615
      2.89000000	      3.63054708	      3.57841775	    -41.51200910	     -0.00417358	      0.91595257	     -0.39142452	      8.29880377	     -7.10749879	     -3.63483050	    -63.51138862	    -10.25702067	      0.01827468	     19.79797756	      4.28443315	      5.89587679	    -28.76823540	      7.99867498	      4.34614832	     -9.69130219	    -11.14395476	      1.17447931
      2.90000000	      3.88163406	      3.61567460	    -42.10785646	      0.00262058	      0.91715068	     -0.38705156	      9.99852290	     -7.68392993	     -3.85187766	    -65.35716590	     -9.21324173	      0.43601248	     18.89859597	      4.55395768	      5.52621371	    -28.53354933	      8.37661859	      3.50180186	    -10.06895838	    -11.23999221	      0.75957345
      2.91000000	      4.11343568	      3.55840043	    -42.68998072	      0.00929315	      0.91846258	     -0.38254307	     11.57864153	     -8.08044907	     -4.03239777	    -66.85313791	     -7.94450216	      0.49472321	     17.93846961	      4.74723791	      5.22506413	    -28.28281229	      8.79768634	      2.66422908	    -10.48025756	    -11.24658045	      0.33940023
      2.92000000	      4.33774393	      3.43422530	    -43.26820322	      0.01581660	      0.91986642	     -0.37788420	     13.05540052	     -8.32849126	     -4.17909690	    -68.01495969	     -6.60597569	      0.29588801	     16.93855310	      4.87453122	      4.91010916	    -28.03025314	      9.19288217	      1.97909316	    -10.91633044	    -11.20560696	     -0.09368496
